#N canvas 827 239 527 327 12;
#X obj 139 139 inlet~;
#N canvas 733 172 450 300 coefficients 0;
#X obj 119 219 expr $f3 * $f8 * $f4 + $f2 * $f10 * $f6 + $f1 * ($f8 * $f5 + $f9 * $f5) + ($f8 * $f6 + $f9 * $f6) \; $f3 * ($f8 * $f9 * $f4 * $f7 + $f8 * $f10 * $f4 * $f7) - $f2 * $f2 * ($f8 * $f10 * $f6 * $f6 + $f9 * $f10 * $f6 * $f6) + $f2 * ($f8 * $f10 * $f4 * $f6 + $f8 * $f10 * $f6 * $f6 + $f9 * $f10 * $f6 * $f6) + $f1 * ($f8 * $f9 * $f4 * $f5 + $f8 * $f9 * $f5 * $f7 + $f8 * $f10 * $f5 * $f7) + $f1 * $f2 * ($f8 * $f10 * $f5 * $f6 + $f9 * $f10 * $f5 * $f6) + ($f8 * $f9 * $f4 * $f6 + $f8 * $f9 * $f6 * $f7 + $f8 * $f10 * $f6 * $f7) \; $f1 * $f2 * ($f8 * $f9 * $f10 * $f4 * $f5 * $f6 + $f8 * $f9 * $f10 * $f5 * $f6 * $f7) - $f2 * $f2 * ($f8 * $f9 * $f10 * $f4 * $f6 * $f6 + $f8 * $f9 * $f10 * $f6 * $f6 * $f7) + $f2 * ($f8 * $f9 * $f10 * $f4 * $f6 * $f6 + $f8 * $f9 * $f10 * $f6 * $f6 * $f7) + $f3 * $f8 * $f9 * $f10 * $f4 * $f6 * $f7 - $f3 * $f2 * $f8 * $f9 * $f10 * $f4 * $f6 * $f7 + $f3 * $f1 * $f8 * $f9 * $f10 * $f4 * $f5 * $f7 \; 1 \; ($f8 * $f4 + $f8 * $f6 + $f9 * $f6 + $f9 * $f7 + $f10 * $f7) + $f2 * $f10 * $f6 + $f1 * ($f8 * $f5 + $f9 * $f5) \; $f2 * ($f8 * $f10 * $f4 * $f6 - $f9 * $f10 * $f6 * $f7 + $f8 * $f10 * $f6 * $f6 + $f9 * $f10 * $f6 * $f6) + $f1 * $f2 * ($f8 * $f10 * $f5 * $f6 + $f9 * $f10 * $f5 * $f6) - $f2 * $f2 * ($f8 * $f10 * $f6 * $f6 + $f9 * $f10 * $f6 * $f6) + $f1 * ($f8 * $f9 * $f5 * $f7 + $f8 * $f9 * $f4 * $f5 + $f8 * $f10 * $f5 * $f7 + $f9 * $f10 * $f5 * $f7) + ($f8 * $f9 * $f4 * $f7 + $f8 * $f10 * $f4 * $f7 + $f8 * $f9 * $f6 * $f7 + $f8 * $f9 * $f4 * $f6 + $f8 * $f10 * $f6 * $f7 + $f9 * $f10 * $f6 * $f7) \; $f1 * $f2 * ($f8 * $f9 * $f10 * $f4 * $f5 * $f6 + $f8 * $f9 * $f10 * $f5 * $f6 * $f7) - $f2 * $f2 * ($f8 * $f9 * $f10 * $f4 * $f6 * $f6 + $f8 * $f9 * $f10 * $f6 * $f6 * $f7) + $f2 * ($f8 * $f9 * $f10 * $f6 * $f6 * $f7 + $f8 * $f9 * $f10 * $f4 * $f6 * $f6 - $f8 * $f9 * $f10 * $f4 * $f6 * $f7) + $f1 * $f8 * $f9 * $f10 * $f4 * $f5 * $f7 + $f8 * $f9 * $f10 * $f4 * $f6 * $f7, f 400;
#X text 19 18 This was created by taking the C implementation \, and text replacing the original variable names R1 \, R2 \, C1 \, etc to $f1 \, $f2 \, $f3. \; \; Then the newlines are removed so that each expression is on its own line. \; \; At this point the expressions can be copy pasted into pd.;
#X text 59 218 b1 \; b2 \; b3 \; a0 \; a1 \; a2 \; a3 \;, f 6;
#X obj 119 179 inlet bass;
#X obj 419 179 inlet middle;
#X obj 719 179 inlet treble;
#X obj 1039 179 inlet R1;
#X obj 1339 179 inlet R2;
#X obj 1659 179 inlet R3;
#X obj 1959 179 inlet R4;
#X obj 2279 179 inlet C1;
#X obj 2579 179 inlet C2;
#X obj 2879 179 inlet C3;
#X obj 119 339 outlet b1;
#X obj 579 339 outlet b2;
#X obj 1039 339 outlet b3;
#X obj 2419 339 outlet a2;
#X obj 2899 339 outlet a3;
#X obj 1499 339 outlet a0;
#X obj 1959 339 outlet a1;
#X connect 0 0 13 0;
#X connect 0 1 14 0;
#X connect 0 2 15 0;
#X connect 0 3 18 0;
#X connect 0 4 19 0;
#X connect 0 5 16 0;
#X connect 0 6 17 0;
#X connect 3 0 0 0;
#X connect 4 0 0 1;
#X connect 5 0 0 2;
#X connect 6 0 0 3;
#X connect 7 0 0 4;
#X connect 8 0 0 5;
#X connect 9 0 0 6;
#X connect 10 0 0 7;
#X connect 11 0 0 8;
#X connect 12 0 0 9;
#X restore 479 219 pd coefficients;
#X f 26;
#X obj 439 339 bilinear_transform_3, f 30;
#X obj 419 259 t b;
#X msg 399 299 0, f 7;
#X obj 219 139 inlet bass;
#X obj 299 139 inlet middle;
#X obj 399 139 inlet treble;
#X obj 419 519 outlet~;
#X obj 495 139 inlet R1, f 8;
#X obj 755 139 inlet C1;
#X obj 557 139 inlet R2;
#X obj 619 139 inlet R3;
#X obj 681 139 inlet R4;
#X obj 818 139 inlet C2;
#X obj 881 139 inlet C3;
#X obj 419 399 /;
#X obj 459 399 /;
#X obj 499 399 /;
#X obj 539 399 /;
#X obj 579 399 !/;
#X obj 619 399 !/;
#X obj 659 399 !/;
#X obj 419 459 iir3~;
#X connect 0 0 23 1;
#X connect 1 0 2 1;
#X connect 1 0 3 0;
#X connect 1 1 2 2;
#X connect 1 2 2 3;
#X connect 1 3 2 4;
#X connect 1 4 2 5;
#X connect 1 5 2 6;
#X connect 1 6 2 7;
#X connect 2 0 16 0;
#X connect 2 1 17 0;
#X connect 2 2 18 0;
#X connect 2 3 19 0;
#X connect 2 4 16 1;
#X connect 2 4 17 1;
#X connect 2 4 18 1;
#X connect 2 4 19 1;
#X connect 2 4 20 0;
#X connect 2 4 21 0;
#X connect 2 4 22 0;
#X connect 2 5 20 1;
#X connect 2 6 21 1;
#X connect 2 7 22 1;
#X connect 3 0 4 0;
#X connect 4 0 2 0;
#X connect 5 0 1 0;
#X connect 6 0 1 1;
#X connect 7 0 1 2;
#X connect 9 0 1 3;
#X connect 10 0 1 7;
#X connect 11 0 1 4;
#X connect 12 0 1 5;
#X connect 13 0 1 6;
#X connect 14 0 1 8;
#X connect 15 0 1 9;
#X connect 16 0 23 2;
#X connect 17 0 23 3;
#X connect 18 0 23 4;
#X connect 19 0 23 5;
#X connect 20 0 23 6;
#X connect 21 0 23 7;
#X connect 22 0 23 8;
#X connect 23 0 8 0;
