#N canvas 827 239 527 327 12;
#X obj 39 39 inlet~;
#X obj 39 219 outlet~;
#X obj 179 39 inlet channel;
#N canvas 733 172 450 300 OD1 0;
#X obj 279 259 expr 0.00916583 * $f3 * $f1 \; 0 \; -0.00916583 * $f3 * $f1 \; 4.30794e-08 * $f4 * $f1 + 2.35e-05 * $f3 * $f1 + 0.000916583 * $f3 + 0.5 \; -8.61588e-08 * $f4 * $f1 + 1 \; 4.30794e-08 * $f4 * $f1 - 2.35e-05 * $f3 * $f1 - 0.000916583 * $f3 + 0.5 \;, f 68;
#X obj 219 659 biquad~;
#X obj 279 599 pack float float float float float;
#X obj 699 379 !/;
#X obj 579 379 !/;
#X obj 459 379 /;
#X obj 579 419 * -1;
#X obj 699 419 * -1;
#X obj 379 379 /;
#X obj 279 379 /;
#X obj 279 219 inlet gain;
#X obj 659 99 samplerate~;
#X obj 739 219 *;
#X obj 659 139 * 2;
#X obj 659 59 loadbang;
#X obj 279 479 expr $f4 \; $f5 \; $f1 \; $f2 \; $f3;
#X text 379 478 rearrange \; B0 B1 B2 A1 A2 \; to \; A1 A2 B0 B1 B2;
#X obj 739 179 t f f;
#X obj 219 219 inlet~;
#X obj 219 699 outlet~;
#X connect 0 0 9 0;
#X connect 0 1 8 0;
#X connect 0 2 5 0;
#X connect 0 3 3 0;
#X connect 0 3 4 0;
#X connect 0 3 5 1;
#X connect 0 3 8 1;
#X connect 0 3 9 1;
#X connect 0 4 4 1;
#X connect 0 5 3 1;
#X connect 1 0 19 0;
#X connect 2 0 1 0;
#X connect 3 0 7 0;
#X connect 4 0 6 0;
#X connect 5 0 15 2;
#X connect 6 0 15 3;
#X connect 7 0 15 4;
#X connect 8 0 15 1;
#X connect 9 0 15 0;
#X connect 10 0 0 0;
#X connect 11 0 13 0;
#X connect 12 0 0 3;
#X connect 13 0 0 2;
#X connect 13 0 17 0;
#X connect 14 0 11 0;
#X connect 15 0 2 0;
#X connect 15 1 2 1;
#X connect 15 2 2 2;
#X connect 15 3 2 3;
#X connect 15 4 2 4;
#X connect 17 0 12 0;
#X connect 17 1 12 1;
#X connect 18 0 1 0;
#X restore 39 99 pd OD1;
#N canvas 0 50 450 300 OD2 0;
#X obj 59 639 biquad~;
#X obj 119 579 pack float float float float float;
#X obj 539 359 !/;
#X obj 419 359 !/;
#X obj 299 359 /;
#X obj 419 399 * -1;
#X obj 539 399 * -1;
#X obj 219 359 /;
#X obj 119 359 /;
#X obj 119 199 inlet gain;
#X obj 499 79 samplerate~;
#X obj 579 199 *;
#X obj 499 119 * 2;
#X obj 499 39 loadbang;
#X obj 119 459 expr $f4 \; $f5 \; $f1 \; $f2 \; $f3;
#X text 219 458 rearrange \; B0 B1 B2 A1 A2 \; to \; A1 A2 B0 B1 B2;
#X obj 579 159 t f f;
#X obj 59 199 inlet~;
#X obj 59 679 outlet~;
#X obj 119 239 expr 0.11 * $f3 * $f1 \; 0 \; -0.11 * $f3 * $f1 \; 4.69953e-08 * $f4 * $f1 + 2.35e-05 * $f3 * $f1 + 0.0009999 * $f3 + 0.5 \; -9.39906e-08 * $f4 * $f1 + 1 \; 4.69953e-08 * $f4 * $f1 - 2.35e-05 * $f3 * $f1 - 0.0009999 * $f3 + 0.5 \;, f 68;
#X connect 0 0 18 0;
#X connect 1 0 0 0;
#X connect 2 0 6 0;
#X connect 3 0 5 0;
#X connect 4 0 14 2;
#X connect 5 0 14 3;
#X connect 6 0 14 4;
#X connect 7 0 14 1;
#X connect 8 0 14 0;
#X connect 9 0 19 0;
#X connect 10 0 12 0;
#X connect 11 0 19 3;
#X connect 12 0 16 0;
#X connect 12 0 19 2;
#X connect 13 0 10 0;
#X connect 14 0 1 0;
#X connect 14 1 1 1;
#X connect 14 2 1 2;
#X connect 14 3 1 3;
#X connect 14 4 1 4;
#X connect 16 0 11 0;
#X connect 16 1 11 1;
#X connect 17 0 0 0;
#X connect 19 0 8 0;
#X connect 19 1 7 0;
#X connect 19 2 4 0;
#X connect 19 3 2 0;
#X connect 19 3 3 0;
#X connect 19 3 4 1;
#X connect 19 3 7 1;
#X connect 19 3 8 1;
#X connect 19 4 3 1;
#X connect 19 5 2 1;
#X restore 99 99 pd OD2;
#X obj 179 79 !- 1;
#X obj 39 179 *~;
#X obj 99 179 *~;
#X obj 239 79 f;
#X obj 99 39 inlet gain;
#X connect 0 0 3 0;
#X connect 0 0 4 0;
#X connect 2 0 5 0;
#X connect 2 0 8 0;
#X connect 3 0 6 0;
#X connect 4 0 7 0;
#X connect 5 0 6 1;
#X connect 6 0 1 0;
#X connect 7 0 1 0;
#X connect 8 0 7 1;
#X connect 9 0 3 1;
#X connect 9 0 4 1;
