#N canvas 827 239 527 327 12;
#X obj 453 81 samplerate~;
#X obj 533 201 *;
#X obj 453 121 * 2;
#X obj 453 41 loadbang;
#X obj 533 161 t f f;
#X obj 39 659 biquad~;
#X obj 99 599 pack float float float float float;
#X obj 519 379 !/;
#X obj 399 379 !/;
#X obj 279 379 /;
#X obj 399 419 * -1;
#X obj 519 419 * -1;
#X obj 199 379 /;
#X obj 99 379 /;
#X obj 99 479 expr $f4 \; $f5 \; $f1 \; $f2 \; $f3;
#X text 199 478 rearrange \; B0 B1 B2 A1 A2 \; to \; A1 A2 B0 B1 B2;
#X obj 39 219 inlet~;
#X obj 39 699 outlet~;
#X obj 99 259 expr 1.1045e-09 * $f2 + 0.00246545 * $f1 + 0.5 \; 1 - 2.209e-09 * $f2 \; 1.1045e-09 * $f2 - 0.00246545 * $f1 + 0.5 \; 1.1045e-09 * $f2 + 0.00011545 * $f1 + 0.5 \; 1 - 2.209e-09 * $f2 \; 1.1045e-09 * $f2 - 0.00011545 * $f1 + 0.5, f 68;
#X connect 0 0 2 0;
#X connect 1 0 18 1;
#X connect 2 0 4 0;
#X connect 2 0 18 0;
#X connect 3 0 0 0;
#X connect 4 0 1 0;
#X connect 4 1 1 1;
#X connect 5 0 17 0;
#X connect 6 0 5 0;
#X connect 7 0 11 0;
#X connect 8 0 10 0;
#X connect 9 0 14 2;
#X connect 10 0 14 3;
#X connect 11 0 14 4;
#X connect 12 0 14 1;
#X connect 13 0 14 0;
#X connect 14 0 6 0;
#X connect 14 1 6 1;
#X connect 14 2 6 2;
#X connect 14 3 6 3;
#X connect 14 4 6 4;
#X connect 16 0 5 0;
#X connect 18 0 13 0;
#X connect 18 1 12 0;
#X connect 18 2 9 0;
#X connect 18 3 7 0;
#X connect 18 3 8 0;
#X connect 18 3 9 1;
#X connect 18 3 12 1;
#X connect 18 3 13 1;
#X connect 18 4 8 1;
#X connect 18 5 7 1;
