#N canvas 827 239 527 327 12;
#X obj 659 59 samplerate~;
#X obj 19 139 inlet b0;
#X obj 99 139 inlet b1;
#X obj 179 139 inlet b2;
#X obj 259 139 inlet b3;
#X obj 339 139 inlet a0;
#X obj 419 139 inlet a1;
#X obj 499 139 inlet a2;
#X obj 579 139 inlet a3;
#X obj 679 179 *;
#X obj 699 219 *;
#X obj 659 99 * 2;
#X obj 659 19 loadbang;
#X obj 359 279 expr -$f2 * $f9 - $f3 * $f10 - $f4 * $f11 \; -$f2 * $f9 + $f3 * $f10 + 3 * $f4 * $f11 \; $f2 * $f9 + $f3 * $f10 - 3 * $f4 * $f11 \; $f2 * $f9 - $f3 * $f10 + $f4 * $f11 \; -$f5 - $f6 * $f9 - $f7 * $f10 - $f8 * $f11 \; -3 * $f5 - $f6 * $f9 + $f7 * $f10 + 3 * $f8 * $f11 \; -3 * $f5 + $f6 * $f9 + $f7 * $f10 - 3 * $f8 * $f11 \; -$f5 + $f6 * $f9 - $f7 * $f10 + $f8 * $f11;
#X obj 199 439 outlet b0;
#X obj 279 439 outlet b1;
#X obj 359 439 outlet b2;
#X obj 439 439 outlet b3;
#X obj 519 439 outlet a0;
#X obj 599 439 outlet a1;
#X obj 679 439 outlet a2;
#X obj 759 439 outlet a3;
#X obj 679 139 t f f f;
#X connect 0 0 11 0;
#X connect 1 0 13 0;
#X connect 2 0 13 1;
#X connect 3 0 13 2;
#X connect 4 0 13 3;
#X connect 5 0 13 4;
#X connect 6 0 13 5;
#X connect 7 0 13 6;
#X connect 8 0 13 7;
#X connect 9 0 10 0;
#X connect 9 0 13 9;
#X connect 10 0 13 10;
#X connect 11 0 13 8;
#X connect 11 0 22 0;
#X connect 12 0 0 0;
#X connect 13 0 14 0;
#X connect 13 1 15 0;
#X connect 13 2 16 0;
#X connect 13 3 17 0;
#X connect 13 4 18 0;
#X connect 13 5 19 0;
#X connect 13 6 20 0;
#X connect 13 7 21 0;
#X connect 22 0 9 0;
#X connect 22 1 9 1;
#X connect 22 2 10 1;
