#N canvas 827 239 527 327 12;
#X obj 359 279 valvestate_tonestack;
#X obj 379 119 knob 50 0 1 0 0.5 empty empty #E4E4E4 #B7B7B7 #4D4D4D 1 0 0 0 1 270 0 0 0;
#X obj 439 219 t b f;
#X obj 499 219 t b f;
#X obj 379 179 nbx 4 18 -1e+37 1e+37 0 0 empty empty empty 0 -8 0 10 #e4e4e4 #373737 #373737 0 256;
#X obj 379 59 loadbang;
#X obj 436 119 knob 50 0 1 0 0.5 empty empty #E4E4E4 #B7B7B7 #4D4D4D 1 0 0 0 1 270 0 0 0;
#X obj 436 179 nbx 4 18 -1e+37 1e+37 0 0 empty empty empty 0 -8 0 10 #e4e4e4 #373737 #373737 0 256;
#X obj 493 119 knob 50 0 1 0 0.5 empty empty #E4E4E4 #B7B7B7 #4D4D4D 1 0 0 0 1 270 0 0 0;
#X obj 493 179 nbx 4 18 -1e+37 1e+37 0 0 empty empty empty 0 -8 0 10 #e4e4e4 #373737 #373737 0 256;
#X obj 299 359 out~;
#X obj 299 219 pink~;
#X connect 0 0 10 0;
#X connect 1 0 4 0;
#X connect 2 0 0 1;
#X connect 2 1 0 2;
#X connect 3 0 0 1;
#X connect 3 1 0 3;
#X connect 4 0 0 1;
#X connect 5 0 1 0;
#X connect 5 0 6 0;
#X connect 5 0 8 0;
#X connect 6 0 7 0;
#X connect 7 0 2 0;
#X connect 8 0 9 0;
#X connect 9 0 3 0;
#X connect 11 0 0 0;
