#N canvas 827 239 527 327 12;
#X obj 199 39 inlet contour;
#X obj 539 1079 fexpr~ ($y3[-1] + $f3 * $x1) * -$f10 + $x1 * $f6 \; ($y3[-1] + $f3 * $x1) * -$f9 + $x1 * $f5 + $y1[-1] \; ($y3[-1] + $f3 * $x1) * -$f8 + $x1 * $f4 + $y2[-1] \; ($y3[-1] + $f3 * $x1);
#X obj 99 179 /;
#X obj 139 179 /;
#X obj 179 179 /;
#X obj 219 179 /;
#X obj 299 179 !/;
#X obj 339 179 !/;
#X obj 379 179 !/;
#X obj 419 179 !/;
#X obj 259 179 /;
#N canvas 733 172 450 300 coefficients 0;
#X obj 739 539 outlet A0;
#X obj 339 539 outlet B0;
#X obj 419 539 outlet B1;
#X obj 499 539 outlet B2;
#X obj 579 539 outlet B3;
#X obj 659 539 outlet B4;
#X obj 819 539 outlet A1;
#X obj 899 539 outlet A2;
#X obj 979 539 outlet A3;
#X obj 1059 539 outlet A4;
#X obj 59 199 inlet contour;
#X obj 59 235 t f f f;
#X obj 79 275 *;
#X obj 1419 79 samplerate~;
#X obj 1439 199 *;
#X obj 1419 119 * 2;
#X obj 1419 39 loadbang;
#X obj 1439 159 t f f f f f;
#X obj 1459 239 *;
#X obj 1479 279 *;
#X obj 39 319 expr 9.05252e-11 * $f5 * $f2 - 1.08076e-10 * $f5 * $f1 + 1.13156e-06 * $f4 * $f2 - 1.15683e-06 * $f4 * $f1 - 1.89607e-08 * $f4 - 0.000315827 * $f3 * $f1 - 0.000205739 * $f3 - 0.0902364 \; -1.8105e-10 * $f5 * $f2 + 2.16151e-10 * $f5 * $f1 - 0.000631655 * $f3 * $f1 - 0.000411478 * $f3 - 0.360946 \; -2.26313e-06 * $f4 * $f2 + 2.31366e-06 * $f4 * $f1 + 3.79213e-08 * $f4 - 0.541418 \; 1.8105e-10 * $f5 * $f2 - 2.16151e-10 * $f5 * $f1 + 0.000631655 * $f3 * $f1 + 0.000411478 * $f3 - 0.360946 \; -9.05252e-11 * $f5 * $f2 + 1.08076e-10 * $f5 * $f1 + 1.13156e-06 * $f4 * $f2 - 1.15683e-06 * $f4 * $f1 - 1.89607e-08 * $f4 + 0.000315827 * $f3 * $f1 + 0.000205739 * $f3 - 0.0902364 \; 3.50825e-15 * $f6 * $f2 - 4.18841e-15 * $f6 * $f1 + 1.73715e-10 * $f5 * $f2 - 2.15705e-10 * $f5 * $f1 - 4.18841e-12 * $f5 + 2.09e-06 * $f4 * $f2 - 2.7005e-06 * $f4 * $f1 - 1.22402e-07 * $f4 - 0.000583333 * $f3 * $f1 - 0.000520123 * $f3 - 0.166667 \; -1.4033e-14 * $f6 * $f2 + 1.67536e-14 * $f6 * $f1 - 3.4743e-10 * $f5 * $f2 + 4.31409e-10 * $f5 * $f1 + 8.37682e-12 * $f5 - 0.00116667 * $f3 * $f1 - 0.00104025 * $f3 - 0.666667 \; 2.10495e-14 * $f6 * $f2 - 2.51305e-14 * $f6 * $f1 - 4.18e-06 * $f4 * $f2 + 5.401e-06 * $f4 * $f1 + 2.44804e-07 * $f4 - 1 \; -1.4033e-14 * $f6 * $f2 + 1.67536e-14 * $f6 * $f1 + 3.4743e-10 * $f5 * $f2 - 4.31409e-10 * $f5 * $f1 - 8.37682e-12 * $f5 + 0.00116667 * $f3 * $f1 + 0.00104025 * $f3 - 0.666667 \; 3.50825e-15 * $f6 * $f2 - 4.18841e-15 * $f6 * $f1 - 1.73715e-10 * $f5 * $f2 + 2.15705e-10 * $f5 * $f1 + 4.18841e-12 * $f5 + 2.09e-06 * $f4 * $f2 - 2.7005e-06 * $f4 * $f1 - 1.22402e-07 * $f4 + 0.000583333 * $f3 * $f1 + 0.000520123 * $f3 - 0.166667 \;, f 217;
#X connect 10 0 11 0;
#X connect 11 0 20 0;
#X connect 11 1 12 0;
#X connect 11 2 12 1;
#X connect 12 0 20 1;
#X connect 13 0 15 0;
#X connect 14 0 18 0;
#X connect 14 0 20 3;
#X connect 15 0 17 0;
#X connect 15 0 20 2;
#X connect 16 0 13 0;
#X connect 17 0 14 0;
#X connect 17 1 14 1;
#X connect 17 2 18 1;
#X connect 17 3 19 1;
#X connect 18 0 19 0;
#X connect 18 0 20 4;
#X connect 19 0 20 5;
#X connect 20 0 1 0;
#X connect 20 1 2 0;
#X connect 20 2 3 0;
#X connect 20 3 4 0;
#X connect 20 4 5 0;
#X connect 20 5 0 0;
#X connect 20 6 6 0;
#X connect 20 7 7 0;
#X connect 20 8 8 0;
#X connect 20 9 9 0;
#X restore 199 79 pd coefficients;
#X obj 359 339 outlet~;
#X obj 79 239 fexpr~ ($y4[-1] + $f3 * $x1) * -$f11 + $x1 * $f7 \; ($y4[-1] + $f3 * $x1) * -$f10 + $x1 * $f6 + $y1[-1] \; ($y4[-1] + $f3 * $x1) * -$f9 + $x1 * $f5 + $y2[-1] \; ($y4[-1] + $f3 * $x1) * -$f8 + $x1 * $f4 + $y3[-1] \; ($y4[-1] + $f3 * $x1);
#X obj 39 179 inlet~;
#X connect 0 0 11 0;
#X connect 2 0 13 2;
#X connect 3 0 13 3;
#X connect 4 0 13 4;
#X connect 5 0 13 5;
#X connect 6 0 13 7;
#X connect 7 0 13 8;
#X connect 8 0 13 9;
#X connect 9 0 13 10;
#X connect 10 0 13 6;
#X connect 11 0 2 0;
#X connect 11 1 3 0;
#X connect 11 2 4 0;
#X connect 11 3 5 0;
#X connect 11 4 10 0;
#X connect 11 5 2 1;
#X connect 11 5 3 1;
#X connect 11 5 4 1;
#X connect 11 5 5 1;
#X connect 11 5 10 1;
#X connect 11 5 6 0;
#X connect 11 5 7 0;
#X connect 11 5 8 0;
#X connect 11 5 9 0;
#X connect 11 6 6 1;
#X connect 11 7 7 1;
#X connect 11 8 8 1;
#X connect 11 9 9 1;
#X connect 13 4 12 0;
#X connect 14 0 13 0;
