#N canvas 827 239 527 327 12;
#X obj 439 39 loadbang;
#X msg 379 99 220000, f 9;
#X msg 459 99 1e+06, f 9;
#X msg 539 99 22000, f 9;
#X msg 619 99 33000, f 9;
#X text 419 118 R1;
#X text 499 118 R2;
#X text 579 118 R3;
#X text 659 118 R4;
#X msg 719 99 4.7e-10, f 9;
#X text 759 118 C1;
#X text 833 118 C2;
#X text 907 118 C3;
#X msg 793 99 2.2e-08, f 9;
#X msg 867 99 2.2e-08, f 9;
#X obj 439 219 fmv_tonestack;
#X obj 99 99 inlet bass;
#X obj 179 99 inlet middle;
#X obj 279 99 inlet treble;
#X obj 39 99 inlet~;
#X obj 439 259 outlet~;
#X connect 0 0 1 0;
#X connect 0 0 2 0;
#X connect 0 0 3 0;
#X connect 0 0 4 0;
#X connect 0 0 9 0;
#X connect 0 0 13 0;
#X connect 0 0 14 0;
#X connect 1 0 15 4;
#X connect 2 0 15 5;
#X connect 3 0 15 6;
#X connect 4 0 15 7;
#X connect 9 0 15 8;
#X connect 13 0 15 9;
#X connect 14 0 15 10;
#X connect 15 0 20 0;
#X connect 16 0 15 1;
#X connect 17 0 15 2;
#X connect 18 0 15 3;
#X connect 19 0 15 0;
